<svg width="64" height="63" viewBox="0 0 64 63" fill="none" xmlns="http://www.w3.org/2000/svg">
<path d="M54.0537 0C59.2959 0.00010967 63.5459 4.25 63.5459 9.49219V53.5078C63.5458 58.7499 59.2958 62.9999 54.0537 63H10.0371C4.79537 62.9995 0.546032 58.7496 0.545898 53.5078V9.49219C0.545898 4.25025 4.79529 0.000518999 10.0371 0H54.0537ZM31.0908 11.4541C19.4941 11.4541 10.0908 21.0945 10.0908 32.9863C10.0909 42.499 16.1082 50.5699 24.4512 53.417C25.501 53.6166 25.8866 52.9503 25.8867 52.3818C25.8867 51.8684 25.8679 50.1714 25.8584 48.3721C20.0162 49.6748 18.7832 45.832 18.7832 45.832C17.8276 43.3439 16.4512 42.6816 16.4512 42.6816C14.5631 41.3574 16.5594 41.3727 16.5947 41.373C18.7035 41.5254 19.8145 43.5918 19.8145 43.5918C21.6879 46.8833 24.7273 45.9321 25.9258 45.3818C26.1144 43.9905 26.6582 43.0403 27.2588 42.5029C22.5945 41.9593 17.6914 40.1117 17.6914 31.8613C17.6915 29.5112 18.5115 27.5904 19.8545 26.083C19.6367 25.5405 18.9181 23.3503 20.0586 20.3848C20.0586 20.3848 21.8218 19.8058 25.834 22.5918C27.5096 22.1149 29.3062 21.8757 31.0908 21.8672C32.8754 21.8758 34.6736 22.1149 36.3516 22.5918C40.3221 19.8323 42.0872 20.3733 42.1201 20.3838C43.263 23.3492 42.5446 25.5398 42.3262 26.082C43.6727 27.5898 44.4873 29.5109 44.4873 31.8613C44.4871 40.1314 39.5752 41.9522 34.8994 42.4854C35.6523 43.154 36.3232 44.4641 36.3232 46.4727C36.3232 49.3536 36.2998 51.673 36.2998 52.3818C36.2999 52.9551 36.6771 53.626 37.7412 53.415C46.0816 50.5649 52.0908 42.4964 52.0908 32.9863C52.0905 21.0943 42.6886 11.4541 31.0908 11.4541Z" fill="white"/>
</svg>
