<svg width="63" height="63" viewBox="0 0 63 63" fill="none" xmlns="http://www.w3.org/2000/svg">
<path d="M53.5081 0C58.7502 0.000128998 63 4.24977 63 9.49194V53.5081C62.9997 58.75 58.75 62.9999 53.5081 63H9.49194C4.24986 63 0.000273498 58.7501 0 53.5081V9.49194C0 4.24969 4.24969 0 9.49194 0H53.5081ZM31.4591 10.5023C25.7567 10.5132 25.0423 10.5368 22.8029 10.646C20.5685 10.7513 19.0418 11.1092 17.7078 11.6332C16.3277 12.1713 15.1579 12.8935 13.9938 14.0618C12.8298 15.2302 12.1117 16.4007 11.5776 17.7835C11.0607 19.1201 10.7107 20.6478 10.612 22.8832C10.5133 25.1185 10.4913 25.8375 10.5023 31.5394C10.5132 37.2413 10.5392 37.9573 10.6475 40.1971C10.7543 42.431 11.1091 43.9578 11.6332 45.2922C12.1721 46.6724 12.8931 47.8418 14.0618 49.0062C15.2305 50.1707 16.4008 50.8859 17.7866 51.4209C19.1221 51.9371 20.6498 52.2901 22.8848 52.388C25.12 52.486 25.84 52.5087 31.5409 52.4977C37.2421 52.4868 37.9605 52.4602 40.2002 52.354C42.4399 52.2478 43.9574 51.89 45.2922 51.3684C46.6725 50.8284 47.8427 50.1086 49.0062 48.9397C50.1699 47.7704 50.8871 46.5985 51.4209 45.215C51.9383 43.8794 52.2895 42.3519 52.3864 40.1183C52.4844 37.8768 52.5085 37.1608 52.4977 31.4591C52.4867 25.7574 52.4602 25.0423 52.354 22.8029C52.2478 20.5636 51.8921 19.043 51.3684 17.7078C50.8287 16.3272 50.108 15.1578 48.9397 13.9923C47.7716 12.8272 46.5989 12.1116 45.2165 11.5791C43.8799 11.062 42.352 10.7086 40.1168 10.612C37.8821 10.5154 37.1616 10.4911 31.4591 10.5023ZM31.4652 14.2904C37.071 14.2782 37.7375 14.2994 39.953 14.397C41.998 14.486 43.1111 14.8247 43.8508 15.1108C44.8322 15.4888 45.5308 15.943 46.2686 16.6773C47.0064 17.4111 47.4614 18.1074 47.8444 19.0889C48.1337 19.8269 48.4785 20.9373 48.5751 22.9852C48.6805 25.1998 48.7042 25.8646 48.7142 31.4699C48.7243 37.0743 48.7047 37.7403 48.6076 39.953C48.5183 42.0005 48.1791 43.1136 47.8938 43.8554C47.5159 44.8359 47.0591 45.5343 46.3258 46.2717C45.5925 47.0093 44.8945 47.4644 43.9141 47.8475C43.1749 48.1361 42.0625 48.4808 40.0179 48.5782C37.8036 48.6823 37.139 48.7035 31.5317 48.7157C25.9249 48.728 25.2626 48.705 23.0486 48.6091C21.0011 48.5201 19.8886 48.1801 19.1476 47.8954C18.1667 47.5174 17.4682 47.0601 16.7299 46.3288C15.9914 45.5977 15.5371 44.8962 15.154 43.9172C14.8664 43.1764 14.5206 42.066 14.4249 40.0194C14.3207 37.8066 14.2981 37.1414 14.2858 31.5348C14.2736 25.9284 14.2955 25.2638 14.3924 23.0501C14.4799 21.0055 14.8221 19.8928 15.1062 19.1523C15.4841 18.1702 15.94 17.4722 16.6727 16.7345C17.4055 15.9966 18.1047 15.5417 19.0843 15.1587C19.8246 14.8698 20.9355 14.5254 22.9821 14.4279C25.1965 14.323 25.8603 14.3027 31.4652 14.2904ZM31.4791 20.7173C25.5239 20.729 20.7061 25.566 20.7173 31.5209C20.7291 37.4761 25.5655 42.292 31.5193 42.2812C37.4737 42.2698 42.2937 37.4345 42.2827 31.4791C42.2713 25.5236 37.4343 20.7056 31.4791 20.7173ZM28.808 25.0369C30.086 24.5045 31.4942 24.3631 32.8526 24.6305C34.2107 24.898 35.4591 25.5632 36.4399 26.5401C37.4206 27.517 38.0905 28.7625 38.3633 30.1196C38.6361 31.4769 38.4997 32.8856 37.9724 34.1657C37.4451 35.4457 36.5496 36.5398 35.4001 37.3112C34.2505 38.0827 32.8976 38.4965 31.5131 38.4992C30.5943 38.5011 29.6839 38.3222 28.8343 37.9724C27.9842 37.6224 27.2115 37.1071 26.5601 36.4584C25.9089 35.8097 25.3918 35.039 25.0384 34.1905C24.685 33.3419 24.5009 32.4323 24.4992 31.5131C24.4965 30.1287 24.9049 28.7741 25.6718 27.6215C26.4387 26.4689 27.5301 25.5692 28.808 25.0369ZM42.6829 17.751C42.0147 17.7524 41.3731 18.0193 40.9016 18.4926C40.4302 18.9658 40.1667 19.6075 40.1677 20.2754C40.1686 20.7737 40.3167 21.2612 40.5941 21.6751C40.8717 22.089 41.2659 22.4121 41.7266 22.6021C42.1873 22.792 42.6948 22.8407 43.1834 22.7427C43.6721 22.6445 44.1216 22.4037 44.4734 22.0505C44.825 21.6976 45.063 21.2478 45.1593 20.759C45.2556 20.2699 45.2058 19.7623 45.0141 19.3021C44.8224 18.8422 44.4974 18.4488 44.0825 18.1728C43.6679 17.8972 43.1808 17.7501 42.6829 17.751Z" fill="white"/>
</svg>
