<svg width="63" height="63" viewBox="0 0 63 63" fill="none" xmlns="http://www.w3.org/2000/svg">
<path d="M53.5081 0C58.7503 0 63 4.24969 63 9.49194V53.5081C62.9999 58.7502 58.7502 63 53.5081 63H9.49194C4.25008 62.9996 0.000133549 58.75 0 53.5081V9.49194C0 4.24991 4.25 0.000362941 9.49194 0H53.5081ZM14.1699 47.5972H21.3368V24.1362H14.1699V47.5972ZM39.3119 23.6325C35.4483 23.6328 33.0969 25.8713 32.145 27.4392H32.0338L31.697 24.1362H25.4818C25.5378 26.2641 25.6502 28.728 25.6502 31.6398V47.5972H32.817V34.1024C32.817 33.4304 32.8731 32.7587 33.0411 32.2547C33.6011 30.9108 34.7782 29.5094 36.738 29.5094C39.3696 29.5097 40.3778 31.5838 40.3778 34.6076V47.5972H47.6019V33.7672C47.6017 26.8236 44.0157 23.6325 39.3119 23.6325ZM17.8098 14C15.5141 14.0003 14 15.568 14 17.6398C14 19.6557 15.4573 21.2778 17.697 21.2781C20.105 21.2781 21.6168 19.6558 21.5608 17.6398C21.5608 15.5678 20.1057 14 17.8098 14Z" fill="white"/>
</svg>
